<svg version="1" xmlns="http://www.w3.org/2000/svg" width="682.667" height="682.667" viewBox="0 0 512.000000 512.000000"><path d="M0 256v256h512V278.5c0-206.7-.2-233.5-1.5-233.5-1.9 0-1.9-1.4-.1-2.9 1.1-.9 1.5-3.9 1.5-11.1l.1-9.9-3.4.6c-1.8.3-3.6.1-4-.5-.4-.6.2-.8 1.4-.5 1.1.3 2.6 0 3.3-.6.8-.6 1.7-.8 2-.4.4.3.7-3.9.7-9.5V0H347C191.6 0 182 .1 181 1.8c-.9 1.6-1.1 1.6-2.4-.1-1-1.3-2.8-1.7-8.2-1.7-5.2 0-6.5.3-5.4 1.1 1.2.9 1.1.9-.5.2C163.4.9 125.9.4 81.3.2L0-.1V256zM117 2c0 .5-.8 1-1.7 1-1.5 0-1.6-.2-.3-1 1.9-1.2 2-1.2 2 0zm69 1.5c0 1.2-2.9.3-3.4-1-.4-1.3-.2-1.4 1.4-.5 1.1.6 2 1.3 2 1.5zM248 2c0 .5-.5 1-1.1 1-.5 0-.7-.5-.4-1 .3-.6.8-1 1.1-1 .2 0 .4.4.4 1zm-7 1c0 .5-.4 1-1 1-.5 0-1-.5-1-1 0-.6.5-1 1-1 .6 0 1 .4 1 1zm-101.3.6c-.3.3-1.2.4-1.9.1-.8-.3-.5-.6.6-.6 1.1-.1 1.7.2 1.3.5zm98.8.4c.3.6-.1 1.3-1 1.6-1.3.6-1.4.8-.3 1.5 1 .7.9.9-.4.9-1 0-1.8.7-1.8 1.7 0 2.4-1.3.7-1.6-2-.3-3.7 3.4-6.4 5.1-3.7zM249 5c0 .5-.7 1-1.6 1-.8 0-1.2-.5-.9-1 .3-.6 1-1 1.6-1 .5 0 .9.4.9 1zM139.8 7.9c-1.3 1.7-2.9 3-3.6 3-.7.1-1 .5-.7 1.1.3.5.2 1-.4 1-.5 0-1.8.3-2.8.6-1.6.6-1.6.5.2-.9 2.3-1.8 1.3-2.2-1.5-.7-1.1.6-1.7 1.7-1.4 2.5.4.8 1 1.3 1.4 1 .5-.3 1.1-.2 1.4.3.2.4-.5.8-1.7.9-3 .1-7.2 1-9.4 2-1 .5-3.6.6-5.8.2l-4-.7 4.2.1 4.2.2-.3-3.5c-.3-4.4.2-6 2.1-6 .8 0 1.1.5.7 1.1-.4.7-.1 1 .7.7.8-.3 1.3-1.1 1.2-1.9-.3-1.5 4.9-2 6.3-.7.6.7-.9 1.2-2.8 1-.3-.1-1.2.5-1.8 1.3-1.6 1.9-.2 1.9 4.4 0 2-.9 4-1.3 4.5-1.1.4.3 1.8-.6 3.2-1.9 3.4-3.4 4.5-3.1 1.7.4zM231 6c0 .5-.5 1-1.1 1-.5 0-.7-.5-.4-1 .3-.6.8-1 1.1-1 .2 0 .4.4.4 1zm12 0c1.3.8 1.3 1-.2 1-.9 0-2-.5-2.3-1-.8-1.3.5-1.3 2.5 0zm-101.4 5.9c-.3.5-1.6 1.1-2.8 1.4-2.2.6-2.2.5-.4-.8 2.2-1.7 4-2 3.2-.6zm346.5 5.4c.8.7 1.8 2.1 2.2 3.2.5 1.4.1 1.2-1.4-.8-1.1-1.5-2.5-2.5-3-2.1-.5.3-.9 0-.9-.5 0-1.4 1.1-1.3 3.1.2zM98 19c0 .5-1 1-2.2.9-2.2 0-2.2-.1-.3-.9 1.1-.5 2.1-.9 2.3-.9.1-.1.2.3.2.9zm5.3-.3c-.7.2-1.3 1.1-1.3 1.9 0 .8-.9 1.4-2.2 1.3-1.7-.1-1.9-.2-.5-.6.9-.2 1.7-1.1 1.7-1.9 0-.8.8-1.4 1.8-1.3 1 0 1.2.3.5.6zm5.4.9c-.3.3-1.2.4-1.9.1-.8-.3-.5-.6.6-.6 1.1-.1 1.7.2 1.3.5zm7 1c-.3.3-1.2.4-1.9.1-.8-.3-.5-.6.6-.6 1.1-.1 1.7.2 1.3.5zM499 26.3c2.2.4 2.1.4-.7.6-1.7 0-3.9-.2-4.9-.6-1.6-.6-1.6-.7.2-1.3 1-.4 2.1-.4 2.4 0 .3.5 1.6 1 3 1.3zm7.5 1.6c.6 1.1-2.6 3.1-4.9 3.1-.9 0-1.6-.5-1.6-1 0-.6.9-1 2-1s2-.5 2-1c0-1.3 1.7-1.3 2.5-.1zm-284 1.1c-.3.5-1.6 1-2.8.9-2-.1-2-.2.3-.9 1.4-.4 2.6-.8 2.8-.9.2-.1 0 .3-.3.9zm-11 1c.3.5-.1 1-.9 1-.9 0-1.6-.5-1.6-1 0-.6.4-1 .9-1 .6 0 1.3.4 1.6 1zM116 31.6c0 .2-.9.4-2.1.4-1.1 0-1.8-.4-1.4-1 .5-.8 3.5-.3 3.5.6zm-5.2 1.9c-.3.3-.9-.2-1.2-1.2-.6-1.4-.5-1.5.5-.6.7.7 1 1.5.7 1.8zM498 38c-1.9 1.3-3 1.3-3 0 0-.6 1-1 2.3-1 1.8 0 1.9.2.7 1zm8.9 2.9c.3.1-.4.7-1.4 1.5-1.1.8-2.4 1.2-2.8.9-.5-.3-1.5.4-2.2 1.5-.8 1.1-2.5 2.2-3.7 2.5l-2.3.6 2.4-1.8c1.3-1 2-2 1.5-2.3-.5-.3-.3-.3.5-.1.8.2 1.1-.2.8-1.1-.3-.8-.3-1.6-.1-1.9.4-.4 4-.3 7.3.2zm-36.2.7c-.3.3-1.2.4-1.9.1-.8-.3-.5-.6.6-.6 1.1-.1 1.7.2 1.3.5zm-379 3.1c0 .9-.7 1.1-2 .7-1.3-.4-1.7-.2-1.3.5 1 1.6-.9 1.4-2.3-.3-.9-1.1-.9-1.5.1-1.9 2.3-.9 5.5-.3 5.5 1zm183.8.3c.3.5.2 1-.4 1-.5 0-1.3-.5-1.6-1-.3-.6-.2-1 .4-1 .5 0 1.3.4 1.6 1zm-225.8.6c-.3.3-1.2.4-1.9.1-.8-.3-.5-.6.6-.6 1.1-.1 1.7.2 1.3.5zm422 0c-.3.3-1.2.4-1.9.1-.8-.3-.5-.6.6-.6 1.1-.1 1.7.2 1.3.5zm-361.1 1.1c-1.1.3-2.6 1.1-3.4 1.9-1.1 1.2-.9 1.4 1.8 1.4 1.7 0 2.9.4 2.6.8-.6 1-12.6-.9-12.6-2 0-.4 1.8-.8 3.9-.8 2.2 0 4.3-.5 4.6-1 .3-.6 1.6-.9 2.8-.9 2 .1 2 .2.3.6zm354.4.6c0 .2-1 1.2-2.1 2.3-2.2 1.9-2.2 1.9-1-.4 1-1.8 3.1-3.1 3.1-1.9zM91.7 48.6c-.3.3-1.2.4-1.9.1-.8-.3-.5-.6.6-.6 1.1-.1 1.7.2 1.3.5zm174.9 3.2c-1.7 1.6-1.8 1.6-.5-.5.7-1.2 1.5-2 1.8-1.7.3.2-.3 1.2-1.3 2.2zm-219.1-.1c1.1-2.5 2.6-2.1 1.6.5-.8 2.1-1.4 2.3-7.2 2-7.2-.4-9.3-1.2-3.2-1.2 2.5 0 4.6-.6 5.4-1.6 1.2-1.4 1.4-1.4 2 .3.6 1.7.7 1.7 1.4 0zm46.1.5c.3.3-1.7.5-4.5.4-2.7 0-4.7-.5-4.4-.9.5-.9 7.9-.4 8.9.5zm-2.9 2.4c-.3.3-1.2.4-1.9.1-.8-.3-.5-.6.6-.6 1.1-.1 1.7.2 1.3.5zm405.7 1c.3.8.2 1.2-.4.9-.6-.3-1-1-1-1.6 0-1.4.7-1.1 1.4.7zm-418.6.1c-1 .2-2.6.2-3.5 0-1-.3-.2-.5 1.7-.5s2.7.2 1.8.5zM54 57c0 .5-1 1-2.2.9-2.2 0-2.2-.1-.3-.9 1.1-.5 2.1-.9 2.3-.9.1-.1.2.3.2.9zm385 4.7c-.4 4.2-.5 4.4-.8 1.5-.3-3 .2-6.2 1-6.2.2 0 .1 2.1-.2 4.7zm-394.7-3c-.7.2-1.9.2-2.5 0-.7-.3-.2-.5 1.2-.5s1.9.2 1.3.5zm359.5 1.8c-.3.3-.9-.2-1.2-1.2-.6-1.4-.5-1.5.5-.6.7.7 1 1.5.7 1.8zm31.2 4.2c-1.1 1.7-1.1 1.7-.6 0 .3-1 .7-2.6.7-3.5.1-1.5.2-1.5.6 0 .2 1-.1 2.5-.7 3.5zM52 62.5c0 .8-.2 1.5-.4 1.5s-.6-.7-1-1.5c-.3-.8-.1-1.5.4-1.5.6 0 1 .7 1 1.5zm54.7 1.1c-.3.3-1.2.4-1.9.1-.8-.3-.5-.6.6-.6 1.1-.1 1.7.2 1.3.5zm327.9 5c-.3.9-.6 1.8-.6 2 0 .3-.4.2-1-.1-.5-.3-1-.1-1 .6s-.3 1-.6.7c-.8-.9 1.5-4.8 2.7-4.8.6 0 .8.7.5 1.6zm-7.6 9.3c-1.3 2.5-1.3 3.1 0 3.1.6 0 1-.8 1-1.7 0-1.3.3-1.4 1.1-.6.9.9.8 1.6-.5 2.8-2 2-2 2.6-.1 1.9.9-.4 1.7.1 2.1 1.2.4 1.1 1.4 2.7 2.3 3.7 1.2 1.5 1.3 2.2.3 3.5-.7.9-1.7 2.8-2.2 4.1-.8 1.9-1.3 2.2-2.3 1.2-.9-.9-.9-1.6.1-3.2 1.2-1.9 1.1-1.9-.8-.9-2.4 1.3-2.4.9-.5 5.4.8 2 1.2 3.6.7 3.6-1.4 0-3.6-9.3-3.7-15.5-.1-3.7.4-6.9 1.3-8.3 1.8-2.7 2.7-2.9 1.2-.3zM77 81.4c0 .2-1.1.6-2.5.8-1.3.3-2.2.1-1.9-.3.5-.9 4.4-1.3 4.4-.5zm431.3 5.1c-.3.9-.8 1.4-1 1.1-.3-.3-.2-.9.2-1.5.9-1.6 1.5-1.3.8.4zm-238.6 2.1c-.3.3-1.2.4-1.9.1-.8-.3-.5-.6.6-.6 1.1-.1 1.7.2 1.3.5zm236 1.6c-.3.8-.6.5-.6-.6-.1-1.1.2-1.7.5-1.3.3.3.4 1.2.1 1.9zM41.4 93.6c.3.8.2 1.2-.4.9-.6-.3-1-1-1-1.6 0-1.4.7-1.1 1.4.7zm6-.2c-.3.8-1.3 1.2-2.5.9-1.6-.5-1.8-.8-.7-1.4 2-1.3 3.8-1.1 3.2.5zm-17 1.2c.3.8.2 1.2-.4.9-.6-.3-1-1-1-1.6 0-1.4.7-1.1 1.4.7zm8.6-1.2c0 .3-.4.8-1 1.1-.5.3-1 .1-1-.4 0-.6.5-1.1 1-1.1.6 0 1 .2 1 .4zm18 .6c0 .5-.5 1-1.1 1-.5 0-.7-.5-.4-1 .3-.6.8-1 1.1-1 .2 0 .4.4.4 1zm253 8c0 .5-.2 1-.4 1-.3 0-.8-.5-1.1-1-.3-.6-.1-1 .4-1 .6 0 1.1.4 1.1 1zm11 3.4c0 .2-.9.2-2-.1-1.1-.3-2-.9-2-1.5 0-.5.9-.4 2 .2 1.1.6 2 1.2 2 1.4zm106 .1c0 1.9-2 2.9-3.2 1.7-1.5-1.5-.2-4.3 1.7-3.6.8.3 1.5 1.2 1.5 1.9zM123 107c0 .5-.5 1-1.1 1-.5 0-.7-.5-.4-1 .3-.6.8-1 1.1-1 .2 0 .4.4.4 1zm188.5 1c.3.5.1 1-.4 1-.6 0-1.1-.5-1.1-1 0-.6.2-1 .4-1 .3 0 .8.4 1.1 1zm101.6.4c.5-.3.9-.2.9.3 0 .4 2.5 2.1 5.5 3.7 6.4 3.3 11.4 8.5 15 15.6 1.4 2.8 3 4.8 3.5 4.5.5-.3 1.2 0 1.6.6.5.8.3.9-.6.4-1-.6-1.1-.1-.6 2.1.5 1.6.9 3.6 1.1 4.4.2.8.8 3.7 1.5 6.5 1.6 7.2 1.4 20.6-.6 27.8-3.1 11.7-9.6 23.6-18.2 33.2-8.6 9.8-10.4 11.5-20.2 18.9-18.7 14.2-41 25.3-65.5 32.5-6 1.8-11.1 3.4-11.3 3.6-.2.2 3.5 5.2 8.2 11.1 11.8 14.9 21 28.9 26.4 40.3 4.3 9 4.6 10.1 4.6 18.3.1 7.2-.2 9.1-2 11.4-1.1 1.5-2.5 2.9-3.1 3.1-.5.2-5.5-5.6-11-12.9C336 317.4 333 314 331 314.1c-1 0-.9.3.5 1l2 .9-2-.3c-1.3-.2-1.9-.9-1.7-2.1.2-1.1-.1-1.5-.7-1.1-.7.3-.8 0-.5-.9.3-.9.1-1.6-.5-1.6s-1.1.5-1.1 1.2c0 1.9-1.4-.1-1.7-2.5-.2-1.8-.1-1.9.7-.7.9 1.2 1 1 .8-1-.2-1.4-.9-2.4-1.6-2.2-.6.1-1.2-.4-1.2-1.2 0-1.3-15.6-21.1-25.3-32l-4.3-4.9-8.6 18.4c-11.6 24.8-23.1 51.8-31.3 73.6-1.7 4.7-3.2 7.3-4.2 7.3-2.2 0-7-5.5-8.5-9.8-2.7-8-1.2-24 4-40.7 4.7-15.1 22.8-55.7 40.9-91.8 5.7-11.5 10-20.6 9.4-20.3-.5.4-9.7 11.5-20.4 24.9-35.4 44.2-61.2 80.6-81.8 115.4-11.8 19.8-12.8 21.3-14.5 21.3-2.6 0-11.3-9.1-14.1-14.9-2.5-5.1-2.8-6.6-2.8-17.1 0-11 .7-19.8 1.8-23 2-5.8 7.3-32.7 6.6-33.4-.5-.5-.3-1.4.5-2 .7-.6 2-3.8 2.9-7.1.9-3.3 3.7-13.4 6.2-22.5 2.4-9.1 6.7-23.7 9.5-32.5 2.7-8.7 5-16.1 5-16.5 0-.8-28.9 43.9-37.8 58.5-2.4 3.8-4.8 7.9-5.5 9-3.9 6.3-5.4 9.1-5.5 9.9 0 .5-.4 1.2-.9 1.5-.9.7-6.3 8.8-6.3 9.5 0 .3-2.6 4.9-5.9 10.3-9.2 15.5-18.3 32.4-28.2 52.6-5 10.3-9.7 18.7-10.3 18.7-1.6 0-5-3.7-7-7.8-2.2-4.3-2.3-15.5-.3-24.3.9-3.6 3.5-10.8 5.7-16 4.3-9.9 18.6-37.7 22.7-44.1 1.2-2.1 2.3-4 2.3-4.2 0-.7 24-40.9 33.5-56.1 8.5-13.6 40.3-61.5 50.7-76.3 2.8-4.1 6.1-7.9 7.4-8.4 3.3-1.5 7.6.5 12.3 5.9 6.3 7.1 8.4 12.5 8.9 22.9.5 11.1-.9 17.1-12.8 54.4-11.1 34.6-16.2 51.9-15.5 52.9.3.5 0 1.1-.5 1.3-1 .3-15.4 49.7-14.7 50.4.2.2 4.1-5.3 8.7-12.4 8.6-13.2 17.8-26.4 25.6-36.7C232.5 253 273 200.7 284 187c12.1-15 16-21.1 14.9-23.2-.6-1.2-.6-1.8.1-1.8.5 0 1 .6 1 1.2 0 .7 1.2 0 2.6-1.6 2-2.3 2.3-3.1 1.2-3.8-1-.8-.9-.9.4-.5 1.7.6 5.1-3.5 5.1-6 0-.7.4-1 .8-.8.4.3 1.6-1.1 2.8-3l2.1-3.6-2.3-.9c-1.2-.5-1.8-.9-1.3-.9.5-.1-.3-1.2-1.7-2.6-2.9-3-5.1-7.9-4.4-9.8.3-.9 3.6-1.9 8.4-2.6 8.2-1.4 27.8-6.5 47.8-12.7 6.6-2 14-4.1 16.5-4.6 7.2-1.6 22-2.4 28.3-1.6 3.3.5 6.3.5 6.8.2zm-170.8.3c-.7.2-1.9.2-2.5 0-.7-.3-.2-.5 1.2-.5s1.9.2 1.3.5zm189.4.5c1.8 2.3 2.2 5.8.7 5.8-.8 0-1.4.4-1.4 1 0 .5.7 1 1.5 1 .9 0 1.2.6.8 1.5-.5 1.4-.8 1.4-2.4-.1-1.4-1.3-1.6-2.1-.8-3.6.9-1.6.7-2.3-1-3.5-2.2-1.5-2-3.3.3-3.3.8 0 1.8.6 2.3 1.2zM316 110c0 .5-.2 1-.4 1-.3 0-.8-.5-1.1-1-.3-.6-.1-1 .4-1 .6 0 1.1.4 1.1 1zm-117 1c0 .5-.5 1-1.1 1-.5 0-.7-.5-.4-1 .3-.6.8-1 1.1-1 .2 0 .4.4.4 1zm238.3 1c-.3 1.1-.9 1.7-1.4 1.5-1-.7-.1-3.5 1.1-3.5.5 0 .6.9.3 2zm-244.8 0c.3.5-.1 1-1 1s-1.3-.5-1-1c.3-.6.8-1 1-1 .2 0 .7.4 1 1zm54.5.4c0 .2-.7.6-1.5 1-.8.3-1.5.1-1.5-.4 0-.6.7-1 1.5-1s1.5.2 1.5.4zm25.8.3c-1 .2-2.6.2-3.5 0-1-.3-.2-.5 1.7-.5s2.7.2 1.8.5zm-64.8 1.7c0 .3-.4.8-1 1.1-.5.3-1 .1-1-.4 0-.6.5-1.1 1-1.1.6 0 1 .2 1 .4zm229 3.7c0 .5-.4.9-.8.9-.5 0-.9-.7-.9-1.5s.4-1.2.9-.9c.4.3.8.9.8 1.5zm-206.5-.1c.3.5.1 1-.4 1-.6 0-1.1-.5-1.1-1 0-.6.2-1 .4-1 .3 0 .8.4 1.1 1zm-148.7 7.4c-.2.1-1.1.7-2 1.4-1.4 1.1-1.6 1-1.1-.7.3-1.2 1.1-1.7 1.9-1.4.8.3 1.4.6 1.2.7zm-6.8.6c0 .5-.2 1-.4 1-.3 0-.8-.5-1.1-1-.3-.6-.1-1 .4-1 .6 0 1.1.4 1.1 1zm136.4-.2c.3.5-.1.9-.9.9s-1.5-.4-1.5-.9c0-.4.4-.8.9-.8.6 0 1.2.4 1.5.8zm81.8.9c.6.7 2.1 1.3 3.3 1.4 1.6.1 1.4.2-.7.9-1.9.5-3.8.3-6.2-.9-2-.9-3.5-1.8-3.6-2.1 0-1.1 6-.4 7.2.7zM72 127c0 .5-.5 1-1.1 1-.5 0-.7-.5-.4-1 .3-.6.8-1 1.1-1 .2 0 .4.4.4 1zm-12.5 3c-.3.5-1.1 1-1.6 1-.6 0-.7-.5-.4-1 .3-.6 1.1-1 1.6-1 .6 0 .7.4.4 1zm10.5-.2c0 .5-.9.8-2 .7-2.9-.2-3.3-1-.5-1.3 1.4-.1 2.5.2 2.5.6zm19 1.3c0 .5-.4.9-1 .9-.5 0-1-.7-1-1.6 0-.8.5-1.2 1-.9.6.3 1 1 1 1.6zm5.5-1.1c.3.5.1 1-.4 1-.6 0-1.1-.5-1.1-1 0-.6.2-1 .4-1 .3 0 .8.4 1.1 1zm-16.2 2.3c.3.8-.1 1.4-.9 1.4s-1.4-.6-1.4-1.4c0-.7.4-1.3.9-1.3s1.1.6 1.4 1.3zm-16.4 4.4c-1.6 1.7-1.8 2.4-.8 2.1.9-.4 2.2-.2 3 .4 1.2.8 1.2.9-.1.5-.8-.2-2.7-.1-4.2.4-1.9.5-2.8.3-3.2-.7-.3-.9.1-1.4 1.3-1.4 1 0 2.6-.9 3.6-2s2-2 2.3-2c.3 0-.5 1.2-1.9 2.7zm12.8-2.1c-.3.3-1.2.4-1.9.1-.8-.3-.5-.6.6-.6 1.1-.1 1.7.2 1.3.5zm-37.6 2.3c-.7.5-1 1.4-.6 2.1.5.8 0 .7-1.4-.2-1.9-1.2-1.9-1.3-.3-2 2.5-1 3.9-.9 2.3.1zm55.9-.5c0 .2-1.1.6-2.5.8-1.3.3-2.2.1-1.9-.3.5-.9 4.4-1.3 4.4-.5zm58.7.2c-.3.3-1.2.4-1.9.1-.8-.3-.5-.6.6-.6 1.1-.1 1.7.2 1.3.5zM44 138c0 .5-.5 1-1.1 1-.5 0-.7-.5-.4-1 .3-.6.8-1 1.1-1 .2 0 .4.4.4 1zm94.7 1.2c-.3.8-.6.5-.6-.6-.1-1.1.2-1.7.5-1.3.3.3.4 1.2.1 1.9zm-85.9 0c1.4 1.4 1.6 3.8.2 3.8-.5 0-.7-.7-.4-1.5.4-.9-.2-1.8-1.7-2.4-1.4-.6-1.8-1-.8-1 .8-.1 2 .4 2.7 1.1zm-6.8.8c0 .5-.5 1-1.1 1-.5 0-.7-.5-.4-1 .3-.6.8-1 1.1-1 .2 0 .4.4.4 1zm-17.7 1.6c-.3.9-.9 1.2-1.2.7-.3-.4-1-1.1-1.5-1.6-.5-.4 0-.7 1.2-.7 1.5 0 2 .4 1.5 1.6zm3.7-.1c-.7.9-1.5 1.3-1.9 1-.3-.3.1-1 .9-1.5 2.1-1.4 2.4-1.2 1 .5zm53.5 1.5c.3.5.1 1-.4 1-.6 0-1.1-.5-1.1-1 0-.6.2-1 .4-1 .3 0 .8.4 1.1 1zm408.9 6.9c.4.5-.3.7-1.4.4-2.3-.6-2.6-1.3-.6-1.3.8 0 1.7.4 2 .9zm-201.3 12.4c-1 .9-1.1.8-.5-.6.3-1 .9-1.5 1.2-1.2.3.3 0 1.1-.7 1.8zm4.3 1.3c.5 1.2.2 1.5-1 1-.8-.3-1.8-.6-2-.6-.3 0-.2-.5.1-1 .9-1.5 2.2-1.2 2.9.6zM509 189.4c0 .2-.8 1-1.7 1.7-1.6 1.3-1.7 1.2-.4-.4 1.3-1.6 2.1-2.1 2.1-1.3zm-64.5 2.6c-.3.5-1.2 1-1.8 1-.7 0-.6-.4.3-1 1.9-1.2 2.3-1.2 1.5 0zm34.5 13c0 .5-.5 1-1.1 1-.5 0-.7-.5-.4-1 .3-.6.8-1 1.1-1 .2 0 .4.4.4 1zm0 6.7c0 .9-.3 1.3-.7 1-.3-.4-1.3-.1-2.1.6-1.1.8-1.4.8-.9 0 .4-.6.4-1.3 0-1.6-.5-.2-.3-.2.4-.1.7.2 1.5-.1 1.8-.6.9-1.5 1.5-1.2 1.5.7zm-32 4.3c-.8.5-2.2.9-3 .9-1 0-.8-.3.5-.9 2.7-1.2 4.3-1.2 2.5 0zm51.4 21.2c-.3.4-1.5.8-2.7.8-1.5 0-1.8-.3-.9-.8 1.7-1.1 4.3-1.1 3.6 0zm-16.9 7.8c-.3.5-1.2 1-1.8 1-.7 0-.6-.4.3-1 1.9-1.2 2.3-1.2 1.5 0zm-3.5 2c0 .5-.5 1-1.1 1-.5 0-.7-.5-.4-1 .3-.6.8-1 1.1-1 .2 0 .4.4.4 1zm22.7 19.6c-.3.3-1.2.4-1.9.1-.8-.3-.5-.6.6-.6 1.1-.1 1.7.2 1.3.5zm-338.9 8.1c-1 .2-2.8.2-4 0-1.3-.2-.5-.4 1.7-.4 2.2-.1 3.2.1 2.3.4zm-10.1 5.9c-.3.3-1.2.4-1.9.1-.8-.3-.5-.6.6-.6 1.1-.1 1.7.2 1.3.5zm2.6 4.1c-.7.2-1.9.2-2.5 0-.7-.3-.2-.5 1.2-.5s1.9.2 1.3.5zM422.5 299c-.3.5-1.2 1-1.8 1-.7 0-.6-.4.3-1 1.9-1.2 2.3-1.2 1.5 0zm-97 15.1c-.4.5.1.9 1 .9s1.4.4 1.1.9c-.5.8-5.6.3-5.6-.6 0-.2.6-1 1.3-1.7 1.3-1.5 3.1-1.1 2.2.5zm178 19.8c-.3.6-1 .9-1.5.6-.4-.3-1.1.2-1.4 1.1-.3.8-1 1.2-1.6.9-.5-.3-1-.3-1 .2 0 .4-1.2 1.6-2.5 2.6-1.8 1.3-2.5 1.4-2.5.5 0-1.7 7.7-7.1 9-6.3.5.3 1 .1 1-.6s.3-1 .6-.6c.3.3.3 1.1-.1 1.6zm-11.9 7.3c.4.6.3.8-.4.4-.6-.3-1.8.1-2.6 1-.9.8-2.4 1.4-3.3 1.2-1.3-.2-.8-.8 1.7-2 4.2-2.1 3.7-2 4.6-.6zm-9.1 3.8c-.3.5-1.1 1-1.6 1-.6 0-.7-.5-.4-1 .3-.6 1.1-1 1.6-1 .6 0 .7.4.4 1zm-6.5 3c-1.9 1.1-3.1 1.9-2.6 2 .5 0 .3.7-.4 1.5s-1.6 1.3-2 1c-.5-.3-1.6.5-2.4 1.7-.9 1.2-1.8 1.9-2.1 1.6-.9-.9 9.3-9.8 11.2-9.8 1.2.1.6.8-1.7 2zm-98 1.5c-.7.8-1.8 1.5-2.4 1.4-.7 0-.6-.2.2-.6.6-.2 1-.9.6-1.4-.3-.5.2-.9 1.2-.9 1.3 0 1.4.3.4 1.5zm-18 7.5c0 .5-.8 1-1.7 1-1.5 0-1.6-.2-.3-1 1.9-1.2 2-1.2 2 0zM42.5 400.8c-.3.3-1.1 0-1.8-.7-.9-1-.8-1.1.6-.5 1 .3 1.5.9 1.2 1.2zm126.2 15.4c-.3.8-.6.5-.6-.6-.1-1.1.2-1.7.5-1.3.3.3.4 1.2.1 1.9zm131.2 2.4c-2.4 1.3-4.8 2.3-5.4 2.3-.5 0 .5-.8 2.4-1.8 2.4-1.3 3-2 2-2.5-.8-.3-.4-.4.9-.2 1.2.2 2.2 0 2.2-.6 0-.5.5-.6 1.2-.2.7.4-.6 1.6-3.3 3zm-37.9 8.6c0 .4-.5.8-1.1.8-.6 0-.9.7-.6 1.4.4 1.1.1 1.3-1 .9-.9-.4-1.4-.2-1.1.3.3.5-.1 1.6-1 2.4-1.4 1.3-1.5 1.2-.9-.4s.5-1.7-.7-.7c-1.3 1.1-1.5.9-1.1-.9.5-2.7 1.5-3.9 1.5-1.9 0 .8.5.6 1.4-.7 1.5-2 4.6-2.9 4.6-1.2zm22.2 4c-1.4 1.4-5.4 1.9-4.6.6.4-.5 1.2-.7 1.9-.4.7.2 1.6-.2 1.9-1.1.4-.9.9-1.3 1.3-.9.4.3.1 1.2-.5 1.8zM252 431c0 .5-.2 1-.4 1-.3 0-.8-.5-1.1-1-.3-.6-.1-1 .4-1 .6 0 1.1.4 1.1 1zm-1.6 1.8c.3.5-.1.9-.9.9s-1.5-.4-1.5-.9c0-.4.4-.8.9-.8.6 0 1.2.4 1.5.8zm-8.4 58.6c0 .2-.7.6-1.5 1-.8.3-1.5.1-1.5-.4 0-.6.7-1 1.5-1s1.5.2 1.5.4zm-4.6 2.1c-.4.8-1.1 1.5-1.6 1.5-.6 0-.5-.6.2-1.5.7-.8 1.4-1.5 1.6-1.5.2 0 .1.7-.2 1.5zm123.3 12.7c-.3.8-.6.5-.6-.6-.1-1.1.2-1.7.5-1.3.3.3.4 1.2.1 1.9zm133 1c-.3.7-.5.2-.5-1.2s.2-1.9.5-1.3c.2.7.2 1.9 0 2.5zm-46 0c-.3.8-.6.5-.6-.6-.1-1.1.2-1.7.5-1.3.3.3.4 1.2.1 1.9z"/><path d="M121.8 13.1c-2.6 1.5-1.1 4 2.1 3.5 1.4-.2 3.2-.5 3.9-.5.6-.1 1.2-.5 1.2-1.1 0-.5-1.4-.7-3-.5-1.7.2-2.8 0-2.4-.6.3-.5 1-.6 1.6-.3.7.4.8.2.4-.4-.9-1.4-1.6-1.5-3.8-.1zM396 132.6c-1.4.3-11.8 3.4-23.2 7.1-20.1 6.4-20.8 6.8-20.8 9.3 0 9.2-7.3 27.3-20.3 50.5-20.4 36.2-22.8 40.7-22.4 41.1.8.8 18.4-4.2 29.7-8.4 48.8-18.2 84.9-52.5 85.4-81.2.1-5.9-.3-8.2-1.9-10.9-3.6-6.1-6.6-7.6-15.8-7.8-4.5 0-9.3.1-10.7.3zM510.5 43c-.3.5-.1 1 .4 1 .6 0 1.1-.5 1.1-1 0-.6-.2-1-.4-1-.3 0-.8.4-1.1 1z"/></svg>